<svg xmlns="http://www.w3.org/2000/svg" viewBox="0 0 660 60" width="660" height="60" fill="none" stroke="#888" stroke-width="2" stroke-linecap="round" stroke-linejoin="round">
  <!-- 1. Carrito sedan perfil lateral -->
  <g id="car" transform="translate(30,30)">
    <path d="M-22,4 L-22,-2 L-16,-2 L-12,-10 L8,-10 L14,-2 L22,-2 L22,4 Z" />
    <line x1="-16" y1="-2" x2="14" y2="-2" />
    <circle cx="-12" cy="6" r="4" /><circle cx="-12" cy="6" r="1.5" />
    <circle cx="14" cy="6" r="4" /><circle cx="14" cy="6" r="1.5" />
    <rect x="-8" y="-8" width="6" height="5" rx="1" />
    <rect x="2" y="-8" width="6" height="5" rx="1" />
  </g>
  <!-- 2. Pistón con aros -->
  <g id="piston" transform="translate(90,30)">
    <rect x="-10" y="-18" width="20" height="14" rx="2" />
    <line x1="-9" y1="-14" x2="9" y2="-14" />
    <line x1="-9" y1="-10" x2="9" y2="-10" />
    <line x1="-9" y1="-6" x2="9" y2="-6" />
    <rect x="-3" y="-4" width="6" height="16" rx="1" />
    <circle cx="0" cy="16" r="5" />
    <circle cx="0" cy="16" r="2" />
  </g>
  <!-- 3. Llave española -->
  <g id="wrench" transform="translate(150,30)">
    <path d="M-4,-20 C-12,-16 -14,-8 -8,-2 L-4,-4 L0,-2 L-2,2 L-6,0 C-12,6 -10,14 -4,18" />
    <path d="M4,-20 C12,-16 14,-8 8,-2 L4,-4 L0,-2" />
    <rect x="-3" y="-2" width="6" height="22" rx="1.5" />
  </g>
  <!-- 4. Motor bloque -->
  <g id="engine" transform="translate(210,30)">
    <rect x="-16" y="-8" width="32" height="20" rx="2" />
    <rect x="-12" y="-16" width="8" height="8" rx="1" />
    <rect x="4" y="-16" width="8" height="8" rx="1" />
    <line x1="-8" y1="-20" x2="-8" y2="-16" />
    <line x1="8" y1="-20" x2="8" y2="-16" />
    <rect x="-18" y="0" width="4" height="8" rx="1" />
    <line x1="-6" y1="-4" x2="-6" y2="8" />
    <line x1="6" y1="-4" x2="6" y2="8" />
    <path d="M16,2 L22,2 L22,8 L16,8" />
  </g>
  <!-- 5. Amortiguador con resorte -->
  <g id="shock" transform="translate(270,30)">
    <rect x="-5" y="-20" width="10" height="16" rx="2" />
    <line x1="0" y1="-4" x2="0" y2="6" />
    <path d="M-8,-2 L8,2 L-8,6 L8,10 L-8,14 L8,18" stroke-width="2" />
    <circle cx="0" cy="22" r="3" />
  </g>
  <!-- 6. Gota de aceite estilizada -->
  <g id="oil" transform="translate(330,30)">
    <path d="M0,-20 C-2,-14 -10,-4 -10,4 C-10,12 -6,18 0,18 C6,18 10,12 10,4 C10,-4 2,-14 0,-20 Z" />
    <path d="M-4,-6 C-2,-8 2,-8 4,-6" stroke-width="1.5" />
    <ellipse cx="-3" cy="2" rx="2.5" ry="4" stroke-width="1" />
  </g>
  <!-- 7. Batería con terminales -->
  <g id="battery" transform="translate(390,30)">
    <rect x="-14" y="-10" width="28" height="22" rx="2" />
    <rect x="-10" y="-16" width="6" height="6" rx="1" />
    <rect x="4" y="-16" width="6" height="6" rx="1" />
    <line x1="-9" y1="-13" x2="-5" y2="-13" />
    <line x1="-7" y1="-15" x2="-7" y2="-11" />
    <line x1="5" y1="-13" x2="9" y2="-13" />
    <line x1="-8" y1="0" x2="8" y2="0" />
    <line x1="-8" y1="4" x2="8" y2="4" />
  </g>
  <!-- 8. Bujía -->
  <g id="sparkplug" transform="translate(450,30)">
    <circle cx="0" cy="-18" r="3" />
    <line x1="0" y1="-15" x2="0" y2="-10" />
    <polygon points="-6,-10 6,-10 6,-4 -6,-4" />
    <rect x="-4" y="-4" width="8" height="14" rx="1" />
    <line x1="-3.5" y1="0" x2="3.5" y2="0" />
    <line x1="-3.5" y1="3" x2="3.5" y2="3" />
    <line x1="-3.5" y1="6" x2="3.5" y2="6" />
    <line x1="0" y1="10" x2="0" y2="16" />
    <line x1="0" y1="16" x2="-5" y2="20" />
    <line x1="-5" y1="20" x2="0" y2="18" />
  </g>
  <!-- 9. Llanta con rin y rayos -->
  <g id="tire" transform="translate(510,30)">
    <circle cx="0" cy="0" r="20" />
    <circle cx="0" cy="0" r="13" />
    <circle cx="0" cy="0" r="4" />
    <line x1="0" y1="-5" x2="0" y2="-12" />
    <line x1="4.75" y1="-1.55" x2="11.4" y2="-3.7" />
    <line x1="2.94" y1="4.05" x2="7.05" y2="9.7" />
    <line x1="-2.94" y1="4.05" x2="-7.05" y2="9.7" />
    <line x1="-4.75" y1="-1.55" x2="-11.4" y2="-3.7" />
  </g>
  <!-- 10. Disco de freno -->
  <g id="brake" transform="translate(570,30)">
    <circle cx="0" cy="0" r="20" />
    <circle cx="0" cy="0" r="8" />
    <circle cx="0" cy="0" r="3" />
    <circle cx="12" cy="0" r="1.5" fill="#888" stroke="none" />
    <circle cx="-12" cy="0" r="1.5" fill="#888" stroke="none" />
    <circle cx="0" cy="12" r="1.5" fill="#888" stroke="none" />
    <circle cx="0" cy="-12" r="1.5" fill="#888" stroke="none" />
    <circle cx="8.5" cy="8.5" r="1.5" fill="#888" stroke="none" />
    <circle cx="-8.5" cy="8.5" r="1.5" fill="#888" stroke="none" />
    <circle cx="8.5" cy="-8.5" r="1.5" fill="#888" stroke="none" />
    <circle cx="-8.5" cy="-8.5" r="1.5" fill="#888" stroke="none" />
    <path d="M-24,-8 C-28,-8 -28,8 -24,8" stroke-width="3" />
  </g>
  <!-- 11. Engranaje 9 dientes centro hueco -->
  <g id="gear" transform="translate(630,30)">
    <circle cx="0" cy="0" r="6" />
    <path d="M0,-19 L3,-15 L3,-13 A13,13,0,0,1,7.8,-10.4 L9.5,-11.8 L13,-9.5 L11.5,-7 L12,-5 A13,13,0,0,1,13,0 L15.5,0.5 L15,4.5 L12,4 L11,5.8 A13,13,0,0,1,7.8,10.4 L9,12.5 L6,15 L4,12.5 L2,12.8 A13,13,0,0,1,-2,12.8 L-4,12.5 L-6,15 L-9,12.5 L-7.8,10.4 A13,13,0,0,1,-11,5.8 L-12,4 L-15,4.5 L-15.5,0.5 L-13,0 A13,13,0,0,1,-12,-5 L-11.5,-7 L-13,-9.5 L-9.5,-11.8 L-7.8,-10.4 A13,13,0,0,1,-3,-13 L-3,-15 Z" />
  </g>
</svg>
