<svg xmlns="http://www.w3.org/2000/svg" viewBox="-20 -20 40 40" fill="none" stroke="#666666" stroke-width="3.5" stroke-linecap="round" stroke-linejoin="round">
  <circle cx="0" cy="0" r="5.5"/>
  <path d="M0,-17 L2.5,-13.5 A11,11,0,0,1,6.5,-11 L9.5,-13 L12.5,-10 L10.5,-7.5 A11,11,0,0,1,12,-3 L15.5,-2.5 L15,1.5 L11.5,1 A11,11,0,0,1,10,5 L12,7.5 L9.5,10.5 L7,8.5 A11,11,0,0,1,3,10.5 L3,14 L-1,14 L-1,10.5 A11,11,0,0,1,-5.5,9 L-8,11 L-11,8 L-9,5.5 A11,11,0,0,1,-11,1.5 L-14.5,2 L-15,-2 L-11.5,-2.5 A11,11,0,0,1,-10,-7 L-12.5,-9 L-10,-12 L-7.5,-10 A11,11,0,0,1,-3,-13 L-3,-17 Z"/>
</svg>